<svg class="animated" id="freepik_stories-jack-olantern" xmlns="http://www.w3.org/2000/svg" viewBox="0 0 500 500" version="1.1" xmlns:xlink="http://www.w3.org/1999/xlink" xmlns:svgjs="http://svgjs.com/svgjs"><style>svg#freepik_stories-jack-olantern:not(.animated) .animable {opacity: 0;}svg#freepik_stories-jack-olantern.animated #freepik--Character--inject-2 {animation: 1.9s 1 forwards ease-in slideUp,1.5s Infinite  linear floating;animation-delay: 0s,1.9s;}            @keyframes slideUp {                0% {                    opacity: 0;                    transform: translateY(30px);                }                100% {                    opacity: 1;                    transform: inherit;                }            }                    @keyframes floating {                0% {                    opacity: 1;                    transform: translateY(0px);                }                50% {                    transform: translateY(-10px);                }                100% {                    opacity: 1;                    transform: translateY(0px);                }            }        </style><g id="freepik--background-complete--inject-2" class="animable" style="transform-origin: 256.075px 258.565px;"><path d="M134.55,415.54,128,337.79c-7.84-17-18.29-53.56-18.29-53.56l-47-28.09h-30L68,253.88l48.61,28,4.83-41.22L96.79,215.46,84.58,187.21,55.31,157.69h1.53l29.52,28.76,11.7,28,26,24.68,20.1-27-10.43-57L99.08,117l-30.54-5.86L35.72,135.55l30.79-25.44,31.81,3.3-1.78-8.9,1-38.17,1,1.78-.51,35.62,4.07,12,32.58,35.12,14.5-42.24-6.87-69.73h1.27l10.18,71.26-10.18,42.75,7.66,60.8L127.84,246.5l-1.21,40.2,17.75,46.83,25.44,81.94Z" style="fill: rgb(235, 235, 235); transform-origin: 101.265px 227.215px;" id="el79it1slaary" class="animable"></path><path d="M109,166.53a13.78,13.78,0,0,1-2.33,1.64c-1.48,1-3.55,2.22-5.85,3.59s-4.41,2.59-5.94,3.44a12.19,12.19,0,0,1-2.56,1.26,13.12,13.12,0,0,1,2.33-1.64c1.48-.95,3.55-2.22,5.85-3.59s4.4-2.59,5.94-3.44A12.19,12.19,0,0,1,109,166.53Z" style="fill: rgb(224, 224, 224); transform-origin: 100.66px 171.495px;" id="eloae9fyyeo9" class="animable"></path><path d="M178.12,146a11.44,11.44,0,0,1-1,1.83c-.68,1.15-1.68,2.81-3,4.8a138,138,0,0,1-11.34,14.82c-2.41,2.74-4.83,5.23-7,7.52-1.07,1.15-2.13,2.22-3.06,3.26s-1.73,2.07-2.45,3c-1.44,1.89-2.5,3.5-3.22,4.62a18.54,18.54,0,0,1-1.14,1.73,1.63,1.63,0,0,1,.21-.5c.15-.31.39-.77.72-1.36a52.7,52.7,0,0,1,3.07-4.76c.71-1,1.51-2,2.41-3.09s2-2.14,3-3.3c2.15-2.33,4.55-4.82,7-7.55a163.06,163.06,0,0,0,11.44-14.66c1.37-2,2.42-3.57,3.17-4.67A15.5,15.5,0,0,1,178.12,146Z" style="fill: rgb(224, 224, 224); transform-origin: 162.015px 166.79px;" id="eljeh5su90af" class="animable"></path><path d="M128.5,337.6a1.3,1.3,0,0,1,0-.42c0-.27,0-.68,0-1.2a29.92,29.92,0,0,1,.59-4.37c.36-1.83.92-4,1.36-6.38a69.79,69.79,0,0,0,1-7.89,74.4,74.4,0,0,0-.37-14.46c-.23-1.84-.48-3.32-.66-4.34l-.21-1.17a2.57,2.57,0,0,1-.05-.42,1.27,1.27,0,0,1,.13.4c.08.34.17.72.27,1.16.23,1,.52,2.5.78,4.34a67.37,67.37,0,0,1,.48,14.51,66.16,66.16,0,0,1-1.06,7.94c-.46,2.42-1,4.55-1.44,6.36a34.67,34.67,0,0,0-.7,4.33C128.53,337,128.53,337.6,128.5,337.6Z" style="fill: rgb(224, 224, 224); transform-origin: 130.246px 317.275px;" id="el0agjpwzgo316" class="animable"></path><path d="M141.7,358.63a7.76,7.76,0,0,1,.72,1.17,11.29,11.29,0,0,1,1.15,3.79,11.14,11.14,0,0,1,0,2.88,5.53,5.53,0,0,1-1.47,3.07,2.82,2.82,0,0,1-1.72.89,2.16,2.16,0,0,1-1.84-.88,5.29,5.29,0,0,1-.86-2c-.17-.72-.35-1.45-.5-2.2a62.38,62.38,0,0,1-1.27-10,17.36,17.36,0,0,1,.44-5.61,5.72,5.72,0,0,1,1.44-2.61,3.12,3.12,0,0,1,1.34-.81,2.2,2.2,0,0,1,1.59.18,4.63,4.63,0,0,1,1.22,1c.36.38.71.77,1,1.18a18.52,18.52,0,0,1,1.77,2.65,22.15,22.15,0,0,1,2.23,6.15,29.29,29.29,0,0,1-.7,13.63,49.19,49.19,0,0,1-2.31,6.58,10.77,10.77,0,0,1-1.68,3,3.22,3.22,0,0,1-3.23.94,6.39,6.39,0,0,1-2.8-1.84,10.74,10.74,0,0,1-1.82-2.71,26.45,26.45,0,0,1-2.15-5.89,42,42,0,0,1-1-11.51,84.64,84.64,0,0,1,1.05-10c1-6.08,2.21-10.91,3-14.25l1-3.83c.23-.88.37-1.33.37-1.33s-.09.46-.3,1.35l-.92,3.85c-.78,3.34-2,8.18-2.92,14.25a87,87,0,0,0-1,10,42.08,42.08,0,0,0,1,11.42,26,26,0,0,0,2.14,5.8,10.35,10.35,0,0,0,1.76,2.63,5.94,5.94,0,0,0,2.63,1.73,2.83,2.83,0,0,0,2.87-.84,10.06,10.06,0,0,0,1.6-2.9,47.6,47.6,0,0,0,2.3-6.53,29.12,29.12,0,0,0,.7-13.46,21.43,21.43,0,0,0-2.19-6.05,17.74,17.74,0,0,0-1.72-2.6c-.32-.41-.66-.79-1-1.16a4.8,4.8,0,0,0-1.13-.95,2.14,2.14,0,0,0-2.53.57,5.3,5.3,0,0,0-1.36,2.46,17.18,17.18,0,0,0-.45,5.5,61.94,61.94,0,0,0,1.22,9.95c.35,1.48.5,3,1.28,4.1a1.93,1.93,0,0,0,1.65.8,2.55,2.55,0,0,0,1.58-.81,5.33,5.33,0,0,0,1.44-2.95,11.33,11.33,0,0,0,.06-2.83,11.53,11.53,0,0,0-1.08-3.77,9.54,9.54,0,0,0-.48-.91C141.75,358.73,141.7,358.63,141.7,358.63Z" style="fill: rgb(224, 224, 224); transform-origin: 139.314px 356.007px;" id="el6mv7vygfccg" class="animable"></path><path d="M153.5,373.33a2,2,0,0,1,.05.42c0,.34,0,.74.06,1.19,0,1,.07,2.55,0,4.41a34.85,34.85,0,0,1-3.26,14.12,25.19,25.19,0,0,1-4.74,6.47,47,47,0,0,1-5,4.26c-.75.57-1.42,1.06-2,1.49a4.24,4.24,0,0,1-1.78.7,1.41,1.41,0,0,1-1.17-.29.77.77,0,0,1-.24-.35s.08.13.29.29a1.37,1.37,0,0,0,1.1.21,4.2,4.2,0,0,0,1.69-.74l2-1.52c2.87-2.28,7-5.61,9.55-10.69a35.88,35.88,0,0,0,3.32-14c.11-1.85.12-3.36.13-4.4v-1.19A2.24,2.24,0,0,1,153.5,373.33Z" style="fill: rgb(224, 224, 224); transform-origin: 144.531px 389.874px;" id="el8mlcey7u2k7" class="animable"></path><path d="M134.7,236.37a15.93,15.93,0,0,0-3.11,1.4,17,17,0,0,0-6.17,6.81c-1.86,3.48-2.77,8.18-3,13.38-.11,2.61-.11,5.35-.12,8.19a65.71,65.71,0,0,0,.52,8.76c.42,3,1.09,5.85,1.52,8.67a46.41,46.41,0,0,1,.54,8.2,123.38,123.38,0,0,1-1.28,13.84,46.06,46.06,0,0,1-1.94,9.16,17.85,17.85,0,0,1-1.39,3.14s.11-.29.35-.82.56-1.32.9-2.37a48.12,48.12,0,0,0,1.82-9.15,130.13,130.13,0,0,0,1.19-13.81,46.74,46.74,0,0,0-.55-8.14c-.44-2.8-1.11-5.67-1.53-8.67a63.28,63.28,0,0,1-.51-8.81c0-2.84,0-5.59.14-8.2.21-5.23,1.16-10,3.08-13.49a16.93,16.93,0,0,1,6.33-6.82,11.78,11.78,0,0,1,2.32-1C134.4,236.43,134.7,236.37,134.7,236.37Z" style="fill: rgb(224, 224, 224); transform-origin: 127.485px 277.145px;" id="ellr28j49sjn8" class="animable"></path><path d="M143.36,222.22a5.53,5.53,0,0,1-1.16,1.12,17.58,17.58,0,0,1-3.3,2.09,17.26,17.26,0,0,1-3.67,1.3,5.13,5.13,0,0,1-1.61.22,39.56,39.56,0,0,0,5.12-1.86A41.36,41.36,0,0,0,143.36,222.22Z" style="fill: rgb(224, 224, 224); transform-origin: 138.49px 224.586px;" id="elv2m90femg9f" class="animable"></path><path d="M146.58,188.19a3.67,3.67,0,0,1,.09.72c0,.47.05,1.15.05,2a42.27,42.27,0,0,1-.51,6.5,44,44,0,0,1-1.49,6.35c-.25.79-.48,1.43-.66,1.86a2.7,2.7,0,0,1-.3.66,25.17,25.17,0,0,1,.71-2.6,55.25,55.25,0,0,0,2-12.78C146.53,189.23,146.52,188.2,146.58,188.19Z" style="fill: rgb(224, 224, 224); transform-origin: 145.24px 197.235px;" id="elkgyesq2jk8" class="animable"></path><path d="M142.93,174.81a.63.63,0,0,1,0,.22c0,.18,0,.38-.07.62,0,.54-.11,1.35-.13,2.39a27.57,27.57,0,0,0,1.21,8.67l-.26,0a9.34,9.34,0,0,0,.61-5c-.11-1.85-.22-3.82-.38-5.88a56,56,0,0,0-2.38-13.1,8,8,0,0,0-1.74-3.18c-.38-.44-1-.63-1.27-.18a2.69,2.69,0,0,0-.19,1.64c.15,2.37.3,4.66.44,6.85.28,4.34.52,8.27.73,11.59a64.36,64.36,0,0,0,.74,7.79,20.1,20.1,0,0,0,.49,2.06c.13.47.21.71.2.72a14.16,14.16,0,0,1-.83-2.75,57.42,57.42,0,0,1-.86-7.8c-.23-3.32-.51-7.25-.81-11.59-.15-2.19-.31-4.48-.47-6.85a3,3,0,0,1,.25-1.87.94.94,0,0,1,1-.4,1.82,1.82,0,0,1,.87.52,8.63,8.63,0,0,1,1.83,3.33,55.4,55.4,0,0,1,2.36,13.19c.16,2.07.26,4,.36,5.9a9.68,9.68,0,0,1-.68,5.16l-.17.29-.09-.31a27.18,27.18,0,0,1-1.1-8.75A20.5,20.5,0,0,1,142.93,174.81Z" style="fill: rgb(224, 224, 224); transform-origin: 141.317px 174.378px;" id="el226fhcknfjj" class="animable"></path><path d="M57.7,232.55a4.25,4.25,0,0,1,.51.86c.37.69.78,1.48,1.26,2.37,1,2,2.47,4.81,4,7.92s2.92,5.92,3.89,8a22.81,22.81,0,0,1,1.45,3.38A20.94,20.94,0,0,1,67,251.88c-1.07-2-2.5-4.8-4-7.9S60,238,59.07,236A15.51,15.51,0,0,1,57.7,232.55Z" style="fill: rgb(235, 235, 235); transform-origin: 63.255px 243.815px;" id="el0tu4c0yfsd1" class="animable"></path><path d="M64.62,246.2c-.11.14-2.88-1.85-6.49-4s-6.67-3.65-6.6-3.81,3.28,1.1,6.92,3.28S64.72,246.07,64.62,246.2Z" style="fill: rgb(235, 235, 235); transform-origin: 58.0758px 242.292px;" id="el921k8uaq8w" class="animable"></path><path d="M47,255.77c.11.14-3,2.68-6.57,6S34,268,33.9,267.89a10.25,10.25,0,0,1,1.63-2.05c1.08-1.21,2.64-2.82,4.45-4.5s3.53-3.11,4.82-4.1A10.11,10.11,0,0,1,47,255.77Z" style="fill: rgb(235, 235, 235); transform-origin: 40.4514px 261.832px;" id="elfuruyhk2k1n" class="animable"></path><path d="M40.85,261c0,.17-2.06.89-4.71,1.58s-4.85,1.11-4.88.85a6.25,6.25,0,0,1,1.36-.49c.86-.27,2-.61,3.37-1C38.63,261.25,40.8,260.8,40.85,261Z" style="fill: rgb(235, 235, 235); transform-origin: 36.055px 262.23px;" id="el9m9p1jm308f" class="animable"></path><path d="M104.53,148.49a9.42,9.42,0,0,1-.59,1.6c-.47,1.12-1.08,2.55-1.81,4.27-1.55,3.59-3.73,8.52-6.18,14l-1.79,4-.85,1.89a11.54,11.54,0,0,0-.64,1.85,8.29,8.29,0,0,1-2.1,3.11l-2.16,2.35-3.16,3.39A10.66,10.66,0,0,1,84,186.07a8.91,8.91,0,0,1,1-1.35l3-3.52,2.1-2.41a7.87,7.87,0,0,0,1.94-2.93,11.59,11.59,0,0,1,.64-1.91l.84-1.9,1.78-4c2.45-5.45,4.69-10.36,6.35-13.91l2-4.18A8.51,8.51,0,0,1,104.53,148.49Z" style="fill: rgb(235, 235, 235); transform-origin: 94.265px 167.28px;" id="elygl2r0jiz3" class="animable"></path><path d="M110.33,152.39c.11.14-2.45,2.22-5.7,4.64s-6,4.28-6.07,4.14,2.45-2.22,5.7-4.64S110.23,152.25,110.33,152.39Z" style="fill: rgb(235, 235, 235); transform-origin: 104.446px 156.78px;" id="eld8br1ov2hsp" class="animable"></path><path d="M97,165.44a15.93,15.93,0,0,1-.23-3c-.08-2.09-.18-4.57-.28-7.3s-.21-5.22-.3-7.31a15.25,15.25,0,0,1,0-3,13.32,13.32,0,0,1,.44,3c.19,1.87.37,4.45.49,7.31s.13,5.45.09,7.33A13.59,13.59,0,0,1,97,165.44Z" style="fill: rgb(235, 235, 235); transform-origin: 96.6736px 155.135px;" id="el8fd85jl6jz2" class="animable"></path><path d="M65,166.22c0,.05-.32-.09-.88-.14a9.31,9.31,0,0,0-2.4.23c-2.1.47-5,0-8.15-.25s-6-.63-8.07-.89a17.9,17.9,0,0,1-3.33-.56,19.14,19.14,0,0,1,3.37.12c2.08.15,4.94.4,8.09.71s6,.78,8,.43a7.24,7.24,0,0,1,2.5,0C64.76,166,65,166.2,65,166.22Z" style="fill: rgb(235, 235, 235); transform-origin: 53.585px 165.547px;" id="elw8arxy9tl7" class="animable"></path><path d="M53.37,165.87s-.06,0,0-.05.12-.1.17,0-.19.23-.32.35c-.29.22-.73.51-1.27.86-1.09.69-2.62,1.62-4.33,2.61-3.42,2-6.26,3.47-6.34,3.31s2.62-1.87,6-3.85c1.7-1,3.26-1.85,4.41-2.45S53.66,165.75,53.37,165.87Z" style="fill: rgb(235, 235, 235); transform-origin: 47.4125px 169.362px;" id="el2wc8vi0u6tz" class="animable"></path><path d="M68,111.11a6.14,6.14,0,0,1-1.18-.76l-3.1-2.24c-2.6-1.9-6.22-4.51-10.26-7.3s-7.77-5.25-10.47-7l-3.19-2.1a5.7,5.7,0,0,1-1.13-.84,6.73,6.73,0,0,1,1.26.63c.79.44,1.92,1.1,3.3,1.93,2.76,1.67,6.53,4.08,10.58,6.87s7.64,5.47,10.18,7.46c1.27,1,2.29,1.82,3,2.4A5.77,5.77,0,0,1,68,111.11Z" style="fill: rgb(235, 235, 235); transform-origin: 53.335px 100.99px;" id="els04v9g83qsa" class="animable"></path><path d="M45.69,94.94c-.13.1-1.38-1.51-2.3-3.81s-1.16-4.32-1-4.35.67,1.88,1.58,4.11S45.84,94.84,45.69,94.94Z" style="fill: rgb(235, 235, 235); transform-origin: 44.0248px 90.862px;" id="elrv6he67ynai" class="animable"></path><path d="M57.67,103.44c0,.17-4.86-.8-10.77-2.15S36.22,98.7,36.26,98.53s4.86.8,10.78,2.15S57.71,103.27,57.67,103.44Z" style="fill: rgb(235, 235, 235); transform-origin: 46.965px 100.985px;" id="elcn2svb3b68" class="animable"></path><path d="M98.07,108.28a10.67,10.67,0,0,1-1.38-1.23c-.85-.83-2.08-2-3.57-3.55-3-3-7-7.28-11.38-12.09s-8.16-9.28-10.87-12.56c-1.35-1.63-2.43-3-3.16-3.91a11.1,11.1,0,0,1-1.09-1.49,10.74,10.74,0,0,1,1.27,1.34l3.32,3.78c2.79,3.2,6.66,7.61,11,12.42s8.33,9.1,11.23,12.2l3.43,3.69A10.48,10.48,0,0,1,98.07,108.28Z" style="fill: rgb(235, 235, 235); transform-origin: 82.345px 90.865px;" id="el0ubwnlwcw6ie" class="animable"></path><path d="M79.33,87.88a16.08,16.08,0,0,1-3-1.16c-1.82-.79-4.31-1.92-7-3.2s-5.2-2.48-7-3.37a16,16,0,0,1-2.81-1.56,16.18,16.18,0,0,1,3,1.16c1.82.79,4.32,1.92,7.05,3.2s5.21,2.48,7,3.37A17.36,17.36,0,0,1,79.33,87.88Z" style="fill: rgb(235, 235, 235); transform-origin: 69.425px 83.235px;" id="elnchiyiq5v" class="animable"></path><path d="M78.68,78.82c.16-.06,1.34,2.84,2.44,6.52s1.72,6.75,1.56,6.79-1.05-2.94-2.16-6.61S78.52,78.88,78.68,78.82Z" style="fill: rgb(235, 235, 235); transform-origin: 80.6831px 85.4747px;" id="elzw0p1xse4al" class="animable"></path><path d="M148.15,79.71a10.58,10.58,0,0,1,.74-1.69c.51-1.08,1.28-2.62,2.25-4.51,1.93-3.78,4.7-9,7.9-14.6s6.24-10.66,8.5-14.26c1.13-1.8,2.06-3.25,2.72-4.24a11.11,11.11,0,0,1,1.08-1.5,9.81,9.81,0,0,1-.87,1.63l-2.55,4.34c-2.16,3.65-5.13,8.71-8.33,14.34s-6,10.77-8.06,14.5c-1,1.79-1.8,3.27-2.42,4.41A9.87,9.87,0,0,1,148.15,79.71Z" style="fill: rgb(235, 235, 235); transform-origin: 159.745px 59.31px;" id="elfylrjpqsytf" class="animable"></path><path d="M161.63,55.51a15.82,15.82,0,0,1,.16-3.21c.18-2,.47-4.7.82-7.7s.72-5.72,1-7.68a16.91,16.91,0,0,1,.6-3.16,15.82,15.82,0,0,1-.16,3.21c-.18,2-.47,4.7-.83,7.7s-.71,5.72-1,7.68A16.91,16.91,0,0,1,161.63,55.51Z" style="fill: rgb(235, 235, 235); transform-origin: 162.92px 44.635px;" id="ele0hm7m9tuup" class="animable"></path><path d="M94.77,49.34a15.92,15.92,0,0,1,.59,3c.32,2.08.71,4.54,1.14,7.27s.85,5.18,1.19,7.26a15.6,15.6,0,0,1,.38,3,14.14,14.14,0,0,1-.81-3c-.42-1.84-.92-4.41-1.38-7.25s-.78-5.44-1-7.32A14.71,14.71,0,0,1,94.77,49.34Z" style="fill: rgb(235, 235, 235); transform-origin: 96.4051px 59.605px;" id="eluqk0n2ziuk" class="animable"></path><path d="M96.42,60.67c-.12.12-1.94-1.44-3.94-3.62s-3.39-4.14-3.26-4.24,1.74,1.66,3.72,3.82S96.54,60.54,96.42,60.67Z" style="fill: rgb(235, 235, 235); transform-origin: 92.8189px 56.7412px;" id="ell18x4ilwmnb" class="animable"></path><path d="M51,123.46c0,.17-4.55-.51-10.1-1.5s-10-1.95-10-2.12,4.55.51,10.1,1.5S51,123.29,51,123.46Z" style="fill: rgb(235, 235, 235); transform-origin: 40.95px 121.65px;" id="elw3sfs951an" class="animable"></path><path d="M185.49,169c0,.05-.29.13-.84.24a15.31,15.31,0,0,1-2.37.27,33.64,33.64,0,0,1-7.79-.75c-3-.59-5.67-1.23-7.62-1.59a25.15,25.15,0,0,1-3.16-.63,11.83,11.83,0,0,1,3.23.19c2,.25,4.7.83,7.67,1.42a42.93,42.93,0,0,0,7.67.91C184.25,169.08,185.47,168.9,185.49,169Z" style="fill: rgb(235, 235, 235); transform-origin: 174.6px 168.01px;" id="elwziuyihk8d" class="animable"></path><path d="M183.4,174.17c-.14.1-1.1-1.06-2.13-2.59s-1.76-2.85-1.61-3a9.6,9.6,0,0,1,2.13,2.6C182.82,172.76,183.54,174.07,183.4,174.17Z" style="fill: rgb(235, 235, 235); transform-origin: 181.529px 171.378px;" id="elod7kkk2jx6" class="animable"></path><path d="M355.61,401.78c-52.57-15.7-107-30.87-161.71-27.11C82.66,382.32,42,484.38,42,484.38l439.25-1.45C441.92,449.06,405.35,416.64,355.61,401.78Z" style="fill: rgb(245, 245, 245); transform-origin: 261.625px 429.235px;" id="el8egzffpte5o" class="animable"></path><path d="M311.07,483.36l17-77.58s-5.79-45.35,36.28-45.39c46.54-.05,43.72,32.9,41.51,45.39-.83,4.67-14.08,77.58-14.08,77.58Z" style="fill: rgb(224, 224, 224); transform-origin: 358.973px 421.875px;" id="el3exzmeoebl2" class="animable"></path><path d="M297.38,483.36l17-77.58s6.76-43.71,48.79-45.36,29.72,40.67,29,45.36-14.07,77.58-14.07,77.58Z" style="fill: rgb(235, 235, 235); transform-origin: 345.887px 421.866px;" id="el0bb3ct6bgvrj" class="animable"></path><path d="M368.53,380.77c-3-2.06-6.75-2.54-10.38-2.49a12.82,12.82,0,0,0-7.12,1.48,14.31,14.31,0,0,0-6,4.67,7.15,7.15,0,0,0-.66,7.27c1.23,2.24,4.4,3.36,6.54,1.95-1.49,1.24-3.14,3.13-2.25,4.85.68,1.31,2.56,1.55,3.89.91a8.65,8.65,0,0,0,3-3.14,6.44,6.44,0,0,0-1.07,2.55,2,2,0,0,0,3.64,1.39,6.22,6.22,0,0,0,.89-2.67c-.26,1.27-.27,2.85.8,3.58,1.24.85,3.05-.21,3.52-1.63a7.44,7.44,0,0,0-.4-4.4c3.5,0,7.36-1.32,8.86-4.49C373.48,387.2,371.62,382.92,368.53,380.77Z" style="fill: rgb(224, 224, 224); transform-origin: 358.051px 389.83px;" id="elall68p2rlhf" class="animable"></path><path d="M355.9,383.42a2.13,2.13,0,0,0-1.48-.56,2.86,2.86,0,0,0-2.07.57,3.84,3.84,0,0,0-2.57,2.93,2.37,2.37,0,0,0,0,.92,2.58,2.58,0,0,0,3.08,1.61,4.54,4.54,0,0,0,3.38-3.71A2.08,2.08,0,0,0,355.9,383.42Z" style="fill: rgb(235, 235, 235); transform-origin: 353.021px 385.908px;" id="el6x18iiznwqx" class="animable"></path><path d="M360.35,383.81a2.16,2.16,0,0,1,1.48-.56,2.88,2.88,0,0,1,2.07.58,3.84,3.84,0,0,1,2.57,2.93,2.37,2.37,0,0,1,0,.92,2.57,2.57,0,0,1-3.08,1.6,4.52,4.52,0,0,1-3.38-3.71A2.09,2.09,0,0,1,360.35,383.81Z" style="fill: rgb(235, 235, 235); transform-origin: 363.229px 386.3px;" id="elhgfj78qchv" class="animable"></path><path d="M358.85,392.23c-.36-1.24-.73-2.48-1.1-3.72,0,0,0-.08-.06-.09s-.08,0-.05.06l-.16,0a11.92,11.92,0,0,0-2.15,4.41.69.69,0,0,0,.05.51c.18.26.59.2.85,0a3.35,3.35,0,0,0,1-1.4,2.39,2.39,0,0,0,.39,1.23.83.83,0,0,0,1.15.19C359.08,393.18,359,392.66,358.85,392.23Z" style="fill: rgb(235, 235, 235); transform-origin: 357.143px 390.995px;" id="elmwq3ieozul" class="animable"></path><path d="M372.42,410.74c0,.18-8.13.33-18.15.33s-18.15-.15-18.15-.33,8.13-.33,18.15-.33S372.42,410.55,372.42,410.74Z" style="fill: rgb(224, 224, 224); transform-origin: 354.27px 410.74px;" id="ell7rhgyj3lt" class="animable"></path><path d="M380.77,420.57c0,.19-13.29.34-29.68.34s-29.68-.15-29.68-.34,13.29-.33,29.68-.33S380.77,420.39,380.77,420.57Z" style="fill: rgb(224, 224, 224); transform-origin: 351.09px 420.575px;" id="elw254esv9yum" class="animable"></path><path d="M370.37,425.07c0,.18-8.85.33-19.75.33s-19.75-.15-19.75-.33,8.84-.33,19.75-.33S370.37,424.88,370.37,425.07Z" style="fill: rgb(224, 224, 224); transform-origin: 350.62px 425.07px;" id="elkfcggd6g3u" class="animable"></path><path d="M333,446.12c0,.18-3.39.33-7.57.33s-7.57-.15-7.57-.33,3.39-.34,7.57-.34S333,445.93,333,446.12Z" style="fill: rgb(224, 224, 224); transform-origin: 325.43px 446.115px;" id="el0sxes09s90x9" class="animable"></path><path d="M354.05,445.17c0,.18-3.28.33-7.33.33s-7.33-.15-7.33-.33,3.28-.33,7.33-.33S354.05,445,354.05,445.17Z" style="fill: rgb(224, 224, 224); transform-origin: 346.72px 445.17px;" id="el74qzfep2ych" class="animable"></path><path d="M375.57,444.46c0,.18-2.75.33-6.15.33s-6.15-.15-6.15-.33,2.75-.33,6.15-.33S375.57,444.28,375.57,444.46Z" style="fill: rgb(224, 224, 224); transform-origin: 369.42px 444.46px;" id="ello6ud06v8t8" class="animable"></path><path d="M393.66,70.76l-24.93,3.65s21.84-7.21,24.13-7.21,2.05,1.31,2.05,1.31c3.35-2.5,4.71-6.78,6.69-10.47,1.73-3.23,4.73-6.41,8.21-6.64a62.31,62.31,0,0,0-91.22,34.05,6.42,6.42,0,0,1,2.54,5.89c2.66-3.06,7.31-3.07,11.35-2.84l36,2c-14.11,9.06-35.25-1.35-48.57,8.83a23.22,23.22,0,0,1-4.39,3.14c0,.78-.06,1.56-.06,2.35A62.31,62.31,0,1,0,427.75,67.62Q410.77,69.75,393.66,70.76Zm-55.25,50.33-16.21,2.37s14.2-4.69,15.69-4.69,1.33.85,1.33.85c2.18-1.62,3.07-4.41,4.36-6.81s3.64-4.75,6.31-4.26,3.95,3.28,4.9,5.74a12.12,12.12,0,0,1,2.61-5.06c1.37-1.34,3.7-1.91,5.22-.74,1.33,1,1.57,3,2.52,4.35,2.05,3,6.54,2.73,10.08,1.82s7.65-2,10.54.24A331,331,0,0,1,338.41,121.09Z" style="fill: rgb(235, 235, 235); transform-origin: 377.77px 104.844px;" id="elmv6ra94xcp" class="animable"></path><path d="M435.17,167.79s11.31-8.31,17.06-3.81l0-3,1.7,1.95,2.15-1.13a16.33,16.33,0,0,1-.59-2.56,12.5,12.5,0,0,0,2.13,1.71s1.76-8.09,12.38-9.66c0,0-6.26,2.2-4.49,7.43,0,0-4.92.51-3.18,4.84a4.1,4.1,0,0,0-1.06,5.05,24.8,24.8,0,0,0-3.23-.85c-.25,0-1.33,3.35-1.33,3.35s-1.72-4-5.15-2.1c0,0-1.47-4.66-6.28-.48C445.32,168.51,444.89,163.92,435.17,167.79Z" style="fill: rgb(245, 245, 245); transform-origin: 452.585px 161.2px;" id="elkcl7s0caidj" class="animable"></path><path d="M264.89,48.62s11.46-8.09,17.12-3.48l.1-3,1.67,2L286,43a16.31,16.31,0,0,1-.54-2.57,12.69,12.69,0,0,0,2.09,1.75s1.92-8,12.57-9.43c0,0-6.31,2.09-4.63,7.35,0,0-4.93.42-3.27,4.78a4.1,4.1,0,0,0-1.16,5A25.25,25.25,0,0,0,287.8,49c-.25,0-1.39,3.33-1.39,3.33s-1.65-4-5.12-2.19c0,0-1.38-4.69-6.27-.6C275,49.54,274.68,44.94,264.89,48.62Z" style="fill: rgb(245, 245, 245); transform-origin: 282.505px 42.54px;" id="elx907vdg7ug" class="animable"></path><path d="M206.06,61.62s21.54-3.83,23.46,21.89l2-8.88,1.36,5.63,2-6,.61,11.2s3.06-22,22.13-22.53c0,0-10.61,4.6-7.26,15.18,0,0-6.45.62-8.46,9.5A17.12,17.12,0,0,0,232.17,98s-2.24-12.94-12.66-13.21c0,0,4.85-10.13-4.64-13.81C214.87,71,214.67,64.53,206.06,61.62Z" style="fill: rgb(235, 235, 235); transform-origin: 231.84px 79.7092px;" id="el4mdcnsng3tv" class="animable"></path></g><g id="freepik--Plants--inject-2" class="animable" style="transform-origin: 230.78px 455.795px;"><path d="M217.09,427.21a2.61,2.61,0,0,1,.55.41l1.53,1.26c.67.55,1.47,1.23,2.36,2.08s1.95,1.75,3,2.87,2.28,2.29,3.48,3.65,2.47,2.83,3.77,4.4a101.18,101.18,0,0,1,13.81,22.6c.8,1.88,1.59,3.65,2.2,5.36s1.19,3.3,1.66,4.77.85,2.81,1.18,4,.59,2.2.77,3,.32,1.45.43,1.94a3.14,3.14,0,0,1,.11.68,3.8,3.8,0,0,1-.21-.66c-.14-.48-.31-1.12-.52-1.91s-.48-1.85-.86-3-.72-2.51-1.25-4-1-3.05-1.72-4.72-1.42-3.46-2.22-5.32A117.39,117.39,0,0,0,239,453a116.3,116.3,0,0,0-7.57-10.82c-1.29-1.57-2.49-3.08-3.72-4.41s-2.35-2.58-3.42-3.68-2.07-2.07-2.95-2.92S219.68,429.6,219,429l-1.47-1.33A2.94,2.94,0,0,1,217.09,427.21Z" style="fill: rgb(38, 50, 56); transform-origin: 234.515px 455.72px;" id="eljblrftfh84c" class="animable"></path><path d="M222.19,462.86a9.58,9.58,0,0,1,1.45.33c.46.12,1,.28,1.66.5s1.39.43,2.18.76A50.19,50.19,0,0,1,233,466.9a55.84,55.84,0,0,1,6.27,3.86,57.15,57.15,0,0,1,5.66,4.7,51,51,0,0,1,4.07,4.41c.56.65,1,1.28,1.42,1.82s.74,1,1,1.42a8.26,8.26,0,0,1,.78,1.27,7.54,7.54,0,0,1-.94-1.15c-.29-.38-.64-.84-1.07-1.36s-.89-1.13-1.47-1.76a58.14,58.14,0,0,0-4.12-4.3,56.54,56.54,0,0,0-11.82-8.49c-2-1-3.82-1.9-5.39-2.53-.78-.34-1.51-.59-2.14-.83s-1.18-.43-1.63-.58A7.18,7.18,0,0,1,222.19,462.86Z" style="fill: rgb(38, 50, 56); transform-origin: 237.195px 473.62px;" id="el82yhjsy4r6k" class="animable"></path><path d="M281,435.22a2.38,2.38,0,0,1-.27.46c-.24.33-.52.75-.87,1.25s-.86,1.2-1.36,2-1.13,1.66-1.73,2.68c-1.27,2-2.65,4.43-4.07,7.21a95.06,95.06,0,0,0-4,9.29,96.64,96.64,0,0,0-3,9.69c-.73,3-1.26,5.8-1.59,8.13-.21,1.16-.3,2.23-.42,3.16s-.2,1.73-.26,2.39l-.15,1.51a1.9,1.9,0,0,1-.09.53,2.67,2.67,0,0,1,0-.53c0-.41,0-.91,0-1.53s.07-1.47.17-2.4.16-2,.34-3.18c.29-2.35.79-5.13,1.49-8.19a92.33,92.33,0,0,1,2.94-9.76,90.15,90.15,0,0,1,4.1-9.33,80.13,80.13,0,0,1,4.19-7.19c.62-1,1.26-1.87,1.8-2.64s1-1.42,1.43-1.94l.95-1.19A2.37,2.37,0,0,1,281,435.22Z" style="fill: rgb(38, 50, 56); transform-origin: 272.088px 459.37px;" id="elww8orc59v3m" class="animable"></path><path d="M189.65,436a9.39,9.39,0,0,1,6.37,3.62,16.46,16.46,0,0,1,3,6.83c1.05,4.74,0,10.23-1.5,14.84-5-2-7.89-7.58-9.18-10.49-2-4.59-2.94-14.13,1.29-14.8" style="fill: rgb(253, 90, 26); transform-origin: 193.046px 448.645px;" id="eleumgtig2xvd" class="animable"></path><path d="M204.59,467.24a8,8,0,0,1,0-8,10.58,10.58,0,0,1,6.59-4.85,4.49,4.49,0,0,1,3.75.35,3.4,3.4,0,0,1,1.17,3.25,7,7,0,0,1-1.6,3.22c-2.62,3.23-5.74,5.88-9.89,6" style="fill: rgb(253, 90, 26); transform-origin: 209.839px 460.687px;" id="elpyq5ylmu3br" class="animable"></path><path d="M204.46,482.93a7.27,7.27,0,0,1-.18-1c-.11-.7-.24-1.6-.41-2.69a28.26,28.26,0,0,1-.16-9,17.26,17.26,0,0,1,3.69-8.17,11.67,11.67,0,0,1,2-1.86c.26-.2.48-.31.62-.41s.23-.12.24-.11a17.18,17.18,0,0,0-2.68,2.54,17.64,17.64,0,0,0-3.53,8.07,30,30,0,0,0,.06,8.91c.13,1.14.24,2.06.3,2.71A4.74,4.74,0,0,1,204.46,482.93Z" style="fill: rgb(38, 50, 56); transform-origin: 206.842px 471.309px;" id="elsg1kam4h5tc" class="animable"></path><path d="M191,443.16s.08.13.19.39.28.68.48,1.15c.4,1,1,2.47,1.66,4.27,1.37,3.62,3.2,8.64,5.09,14.23s3.49,10.7,4.6,14.41c.55,1.85,1,3.35,1.27,4.4l.32,1.2c.08.28.11.42.09.43a2.77,2.77,0,0,1-.15-.41l-.39-1.18-1.38-4.37c-1.17-3.69-2.8-8.77-4.69-14.36s-3.68-10.62-5-14.26c-.64-1.79-1.17-3.25-1.55-4.31-.17-.48-.31-.87-.41-1.17A3.12,3.12,0,0,1,191,443.16Z" style="fill: rgb(38, 50, 56); transform-origin: 197.853px 463.4px;" id="elf2ht77dqpm7" class="animable"></path><path d="M198.89,472.3a18.65,18.65,0,0,0-14.07-9.62c-1.5-.18-3.31,0-4,1.32s.1,2.95,1.07,4.1a16,16,0,0,0,17.08,4.61" style="fill: rgb(253, 90, 26); transform-origin: 189.765px 468.077px;" id="eljdha5oztsyr" class="animable"></path><path d="M186.92,466.79a5.82,5.82,0,0,1,.94.08A9.88,9.88,0,0,1,189,467c.42.1.91.17,1.43.34a14.33,14.33,0,0,1,1.69.55c.6.21,1.22.5,1.87.8a20.93,20.93,0,0,1,3.91,2.56,20.16,20.16,0,0,1,3.18,3.43,17,17,0,0,1,1.1,1.72,15.79,15.79,0,0,1,.8,1.59c.24.48.38,1,.54,1.36a9,9,0,0,1,.32,1.05,5.12,5.12,0,0,1,.21.92c-.08,0-.38-1.29-1.3-3.23a15.85,15.85,0,0,0-.83-1.54,17.78,17.78,0,0,0-1.1-1.68,21.18,21.18,0,0,0-3.14-3.35A22.07,22.07,0,0,0,193.8,469c-.64-.31-1.24-.6-1.84-.82a16.51,16.51,0,0,0-1.65-.58C188.25,467,186.91,466.87,186.92,466.79Z" style="fill: rgb(38, 50, 56); transform-origin: 195.485px 474.055px;" id="elrvsvbbi5gb" class="animable"></path></g><g id="freepik--Character--inject-2" class="animable" style="transform-origin: 253.539px 291.07px;"><path d="M237.46,120.39a7.41,7.41,0,0,1,3.81-3.52c1.6-.77,3.32-1.28,4.86-2.17a11.28,11.28,0,0,0,4.16-15.38l5.92-.52c2.08,4.76-2.43,10.47-.49,15.28.7,1.73,2.14,3,3.07,4.66s1.24,3.93-.19,5.14" style="fill: rgb(69, 90, 100); transform-origin: 248.52px 111.34px;" id="el6ni8khouq1t" class="animable"></path><path d="M259.9,105.13a5.46,5.46,0,0,1,7.22-3.59,16.79,16.79,0,0,0,3.1,1.32c1.72.3,3.36-.78,4.78-1.81a6,6,0,0,1-1.09,5.38,9.83,9.83,0,0,1-12.67,1.86,4.12,4.12,0,0,1-1.34-3.16" style="fill: rgb(69, 90, 100); transform-origin: 267.562px 105.43px;" id="eld9cborqsokj" class="animable"></path><path d="M265.1,105.57a15.48,15.48,0,0,0-9.78.73,9.78,9.78,0,0,1,9.78-.73Z" style="fill: rgb(38, 50, 56); transform-origin: 260.21px 105.447px;" id="elqpwazssc1z" class="animable"></path><path d="M224,121.21c-6.25-1.8-13.18.87-17.76,5.49s-7.12,10.89-8.7,17.2a51.12,51.12,0,0,0-1.24,21.23,32,32,0,0,0,9.87,18.57c7.33,6.47,17.54,8.41,27.26,9.42a208.81,208.81,0,0,0,26.58,1,76.58,76.58,0,0,0,18.55-2.25,34.31,34.31,0,0,0,16.08-9.14,31.79,31.79,0,0,0,7.87-17.22,49.92,49.92,0,0,0-1.33-19.07,50.92,50.92,0,0,0-9.5-20,17.3,17.3,0,0,0-6.27-5.24,8.32,8.32,0,0,0-7.89.36,16.9,16.9,0,0,0-19.08-3.23,14.71,14.71,0,0,0-18.7,2.41c-4-4.16-12.72-3.77-15.74.44" style="fill: rgb(253, 90, 26); transform-origin: 249.302px 155.108px;" id="el7jd8fkwkt0h" class="animable"></path><path d="M239.58,193.67a4.08,4.08,0,0,1-.27-.71l-.68-2.05c-.31-.89-.61-2-.95-3.29-.17-.65-.35-1.34-.55-2.07l-.51-2.34c-.76-3.27-1.38-7.23-2-11.63s-.85-9.29-.94-14.42a136,136,0,0,1,.65-14.43,93,93,0,0,1,1.95-11.64c.19-.82.38-1.59.56-2.33s.42-1.41.62-2a33.9,33.9,0,0,1,1.08-3.24l.8-2a3.92,3.92,0,0,1,.31-.68,4.47,4.47,0,0,1-.21.72l-.7,2c-.34.88-.65,2-1,3.26-.18.64-.38,1.33-.58,2s-.34,1.52-.52,2.33a100.83,100.83,0,0,0-1.84,11.61,141.18,141.18,0,0,0-.59,14.38c.08,5.11.42,10,.89,14.37s1.13,8.33,1.84,11.61l.48,2.34.51,2.07c.31,1.29.58,2.41.85,3.3s.44,1.56.59,2.08A6.88,6.88,0,0,1,239.58,193.67Z" style="fill: rgb(38, 50, 56); transform-origin: 236.663px 157.255px;" id="elz0mxsr4fgc" class="animable"></path><path d="M257.56,190.54a4.12,4.12,0,0,1,.16-.73c.15-.52.34-1.2.57-2.06s.56-2,.87-3.26.71-2.73,1-4.35c.17-.81.36-1.66.55-2.55s.33-1.81.51-2.77c.38-1.91.65-4,1-6.14a142.32,142.32,0,0,0,1.11-14.2,128.39,128.39,0,0,0-.55-14.23c-.26-2.17-.45-4.24-.8-6.16-.15-1-.28-1.9-.45-2.78s-.35-1.74-.52-2.55c-.29-1.63-.69-3.08-1-4.36-.16-.63-.31-1.23-.44-1.78s-.31-1-.44-1.48c-.24-.85-.44-1.53-.59-2a7.14,7.14,0,0,1-.17-.73,3.39,3.39,0,0,1,.27.69c.18.52.4,1.19.68,2l.48,1.47.49,1.78c.34,1.27.76,2.72,1.08,4.35.18.81.36,1.67.56,2.55s.31,1.83.48,2.79c.36,1.92.58,4,.85,6.18a124.37,124.37,0,0,1,.59,14.29,134.53,134.53,0,0,1-1.16,14.26c-.33,2.17-.62,4.24-1,6.15-.19,1-.35,1.89-.55,2.78s-.4,1.73-.59,2.54c-.35,1.62-.77,3.07-1.11,4.34s-.66,2.37-1,3.25-.49,1.52-.66,2A3.1,3.1,0,0,1,257.56,190.54Z" style="fill: rgb(38, 50, 56); transform-origin: 260.713px 154.475px;" id="ellwu0j1ewc79" class="animable"></path><path d="M279.93,187.63a3.06,3.06,0,0,1,.25-.66l.82-1.84q.28-.6.6-1.32c.22-.49.41-1,.64-1.61.43-1.16,1-2.46,1.43-4l.75-2.33c.26-.81.44-1.68.67-2.56.5-1.77.83-3.7,1.21-5.73a74.25,74.25,0,0,0,.89-13.35A72.82,72.82,0,0,0,285.43,141c-.53-2-1-3.9-1.62-5.62-.3-.86-.54-1.72-.86-2.51l-.93-2.26c-.55-1.46-1.24-2.7-1.76-3.82-.28-.56-.51-1.08-.77-1.55l-.72-1.26-1-1.75a3.09,3.09,0,0,1-.31-.64,4.24,4.24,0,0,1,.4.58c.28.43.63,1,1.07,1.71l.77,1.24c.27.46.52,1,.81,1.54.55,1.11,1.27,2.34,1.84,3.8l1,2.27c.34.79.59,1.64.9,2.51.66,1.73,1.13,3.65,1.68,5.65a71,71,0,0,1,1.81,13.36,72.41,72.41,0,0,1-.94,13.45c-.39,2-.74,4-1.26,5.75-.25.89-.43,1.77-.71,2.58l-.78,2.33c-.45,1.5-1.06,2.79-1.51,3.95-.25.57-.45,1.12-.68,1.6s-.45.91-.64,1.31c-.38.74-.68,1.34-.91,1.8S279.94,187.63,279.93,187.63Z" style="fill: rgb(38, 50, 56); transform-origin: 282.61px 154.61px;" id="elikvfhof6oja" class="animable"></path><path d="M222.34,189.91a2.88,2.88,0,0,1-.4-.62l-1.08-1.81-.76-1.33-.78-1.64a39.44,39.44,0,0,1-1.75-4.06c-.29-.77-.59-1.58-.91-2.41s-.52-1.76-.8-2.68c-.6-1.84-1-3.87-1.44-6a75.62,75.62,0,0,1-1.16-14.06,74.66,74.66,0,0,1,1.72-14c.58-2.1,1-4.12,1.72-5.93.32-.91.62-1.79.92-2.63l1-2.36a36.72,36.72,0,0,1,2-4l.87-1.6.84-1.27,1.18-1.75a3.09,3.09,0,0,1,.44-.59,4.87,4.87,0,0,1-.36.65l-1.09,1.8-.8,1.29c-.25.5-.53,1-.82,1.61a36.31,36.31,0,0,0-1.89,4l-1,2.36c-.29.85-.59,1.72-.89,2.63-.68,1.8-1.09,3.81-1.66,5.89a76.58,76.58,0,0,0-1.67,13.91,78.31,78.31,0,0,0,1.11,14c.46,2.11.81,4.13,1.39,6,.27.92.5,1.82.76,2.67s.6,1.64.87,2.41a41.37,41.37,0,0,0,1.68,4.07l.73,1.65.72,1.34,1,1.86A4.3,4.3,0,0,1,222.34,189.91Z" style="fill: rgb(38, 50, 56); transform-origin: 218.603px 155.54px;" id="eldhf8luw4lsk" class="animable"></path><path d="M222.34,138.35c1.07,3.27,2.45,7.5,4.64,10.16a14.27,14.27,0,0,0,8.63,5.25,9.71,9.71,0,0,0,9.19-3.48A73.58,73.58,0,0,0,222.34,138.35Z" style="fill: rgb(253, 90, 26); transform-origin: 233.57px 146.124px;" id="el0fhw7zqjdl6n" class="animable"></path><g id="elwcle2e2am7q"><g style="opacity: 0.3; transform-origin: 233.57px 146.124px;" class="animable"><path d="M222.34,138.35c1.07,3.27,2.45,7.5,4.64,10.16a14.27,14.27,0,0,0,8.63,5.25,9.71,9.71,0,0,0,9.19-3.48A73.58,73.58,0,0,0,222.34,138.35Z" id="elwjth2z4s0c" class="animable" style="transform-origin: 233.57px 146.124px;"></path></g></g><path d="M228.63,146.86a14.3,14.3,0,0,0,8.63,5.25,10.2,10.2,0,0,0,7.53-1.81v0a73.42,73.42,0,0,0-20-11.07A25.71,25.71,0,0,0,228.63,146.86Z" style="fill: rgb(38, 50, 56); transform-origin: 234.79px 145.73px;" id="elcb2x4rbqd6" class="animable"></path><path d="M277.61,138.8a1.9,1.9,0,0,0-1.35-1.16c-4.07-1.47-8.58.65-11.94,3.39s-6.23,6.18-10.13,8.06a23.07,23.07,0,0,0,5.38,4.32,9,9,0,0,0,6.93,1c3.24-1,5.19-4.23,6.84-7.19l3.87-6.95A2.15,2.15,0,0,0,277.61,138.8Z" style="fill: rgb(253, 90, 26); transform-origin: 265.905px 145.931px;" id="elxokcprp6lh" class="animable"></path><g id="el3j9a54dfj22"><g style="opacity: 0.3; transform-origin: 265.905px 145.931px;" class="animable"><path d="M277.61,138.8a1.9,1.9,0,0,0-1.35-1.16c-4.07-1.47-8.58.65-11.94,3.39s-6.23,6.18-10.13,8.06a23.07,23.07,0,0,0,5.38,4.32,9,9,0,0,0,6.93,1c3.24-1,5.19-4.23,6.84-7.19l3.87-6.95A2.15,2.15,0,0,0,277.61,138.8Z" id="ellm165q1p7dd" class="animable" style="transform-origin: 265.905px 145.931px;"></path></g></g><path d="M266.5,152c3.24-1,5.19-4.23,6.84-7.19l3.75-6.73a2.85,2.85,0,0,0-.83-.43c-4.07-1.47-8.58.65-11.94,3.39-2.87,2.35-5.4,5.21-8.52,7.16a19.89,19.89,0,0,0,3.77,2.76A8.93,8.93,0,0,0,266.5,152Z" style="fill: rgb(38, 50, 56); transform-origin: 266.445px 144.728px;" id="elzbkqsn6pcf" class="animable"></path><path d="M285.68,136.17c-6.48-7.28-.79-.16-.79-.16s3.95,6.64.47,10.75l-.78.94c-.75,0-2.63.3-3,2.07-.48,2.21-1.43,11.39-2.53,10a19.32,19.32,0,0,0-2.69-2.69s-2.06,11.23-3.64,10.76-6.79-6.49-6.79-6.49-4,14.56-5.71,12.5-6-10.91-6-10.91-1.08,11.07-3.62,7.91a25.22,25.22,0,0,1-3.8-7.44s-3.48,10.76-4.9,7.44a46,46,0,0,1-2.06-5.7s-4.27,8.23-4.43,4.43a69.29,69.29,0,0,0-.69-7.12s-2.63,5.67-4.37,4.26-1.11-10.43-1.11-10.43-3.91,6.8-5.75,4.59-.89-9.65-.89-9.65-2.21,2.06-4.11,1.11-3.48-14.39-1.74-20.72c0,0-9.81,27,0,36.69h1.42s1.78,10.76,5.32,7.28c0,0,4,7.75,5,6.8a11.55,11.55,0,0,0,1.74-3.64s5.56,7.08,9.52,4.31c0,0,3.45-7.47,4.88-5.57s3.32,8.06,3.32,8.06,2.84-6.18,4.64-6.08,5,6.08,5,6.08,6.64-13.76,7.43-10.91a29.52,29.52,0,0,1,1,5.06s5.21-8.54,6.47-6.32a20.22,20.22,0,0,0,3.33,4.11s3.63-.95,5.37-7.28,1.27-15.48,2.85-15.41a10.43,10.43,0,0,1,2.53.38S292.17,143.44,285.68,136.17Z" style="fill: rgb(253, 90, 26); transform-origin: 250.602px 158.585px;" id="elor8z4n48rmh" class="animable"></path><g id="elpgzds0p6lfs"><path d="M285.38,146.76l-.79.94c-.75,0-2.63.3-3,2.07-.47,2.21-1.42,11.39-2.53,10a19.32,19.32,0,0,0-2.69-2.69s-2.05,11.23-3.63,10.76-6.8-6.49-6.8-6.49-4,14.56-5.7,12.5-6-10.91-6-10.91-1.09,11.07-3.62,7.91a25,25,0,0,1-3.8-7.44s-3.48,10.76-4.91,7.44a46.81,46.81,0,0,1-2-5.7s-4.27,8.23-4.43,4.43a67.6,67.6,0,0,0-.7-7.12s-2.62,5.67-4.36,4.26-1.11-10.43-1.11-10.43-3.92,6.8-5.76,4.59-.88-9.65-.88-9.65-2.22,2.06-4.12,1.11-3.92-11.84-2.48-18.46c.23.18-9,24.88.74,34.43h1.43s1.78,10.76,5.31,7.28c0,0,4,7.75,5,6.8a11.55,11.55,0,0,0,1.74-3.64s5.56,7.08,9.51,4.31c0,0,3.46-7.47,4.88-5.57s3.32,8.06,3.32,8.06,2.84-6.18,4.64-6.08,5,6.08,5,6.08,6.64-13.76,7.43-10.91a28.38,28.38,0,0,1,1,5.06s5.21-8.54,6.48-6.32a20,20,0,0,0,3.32,4.11s3.64-.95,5.38-7.28,1.26-15.48,2.85-15.41a10.43,10.43,0,0,1,2.53.38,30.25,30.25,0,0,0,2.18-5.75,26.36,26.36,0,0,0-.08-7c-.27-1.45-1.61,2.78-1.61,2.78l-1.6,1.57" style="opacity: 0.3; transform-origin: 250.67px 159.715px;" class="animable"></path></g><path d="M212.42,152.22c.26,4.64,1.46,8.9,4.3,11.7h1.42s1.78,10.75,5.32,7.27c0,0,4,7.75,5,6.81a11.55,11.55,0,0,0,1.74-3.64s5.56,7.08,9.52,4.31c0,0,3.45-7.48,4.88-5.58s3.32,8.07,3.32,8.07,2.84-6.18,4.64-6.09,5,6.09,5,6.09,6.64-13.76,7.43-10.92a29.53,29.53,0,0,1,1,5.07s5.21-8.54,6.47-6.33a20.22,20.22,0,0,0,3.33,4.11s3.63-1,5.37-7.27,1.27-15.48,2.85-15.42a10.43,10.43,0,0,1,2.53.38,26.61,26.61,0,0,0,2.18-7.84,12.73,12.73,0,0,0-1.87-5.33,8.56,8.56,0,0,1,0,1.43,12.36,12.36,0,0,0,0,2.58,6.7,6.7,0,0,1-1.39,5.14l-.78.94c-.75,0-2.63.3-3,2.07-.48,2.21-1.43,11.39-2.53,10a19.32,19.32,0,0,0-2.69-2.69s-2.06,11.23-3.64,10.76-6.79-6.49-6.79-6.49-4,14.56-5.71,12.5-6-10.91-6-10.91-1.08,11.07-3.62,7.91a25.22,25.22,0,0,1-3.8-7.44s-3.48,10.76-4.9,7.44a46,46,0,0,1-2.06-5.7s-4.27,8.23-4.43,4.43a69.29,69.29,0,0,0-.69-7.12s-2.63,5.67-4.37,4.26c-1.33-1.08-1.27-6.64-1.17-9.17,0-.36,0-.72,0-1.08-.62,1-4,6.41-5.65,4.41-1.27-1.53-1.21-5.55-1.05-7.89,0-.51-.07-1-.08-1.56-.62.5-2.35,1.67-3.87.91s-2.76-9-2.44-15.66c0-.94-.06-1.88-.05-2.8A79.16,79.16,0,0,0,212.42,152.22Z" style="fill: rgb(38, 50, 56); transform-origin: 250.57px 157.52px;" id="eliwht78ks99f" class="animable"></path><path d="M210.33,126.68a7.31,7.31,0,0,0-4.21,3.65,21.66,21.66,0,0,0-1.84,5.4c-.67,2.72-1.33,5.44-2,8.17-.1.42-.13,1,.29,1.14s.73-.31.92-.69A161.69,161.69,0,0,0,211.55,125l-2.1,1.88" style="fill: rgb(38, 50, 56); transform-origin: 206.883px 135.033px;" id="el5tj4wco63j" class="animable"></path><path d="M254.3,100.08s-.13.22-.52.31a1.51,1.51,0,0,1-1.53-.61l-.15-.21.26-.09a5.42,5.42,0,0,1,1.84-.26,7,7,0,0,1,1.08.15,3.79,3.79,0,0,1,.57.19.55.55,0,0,1,.31.39.61.61,0,0,1-.15.47,1.39,1.39,0,0,1-.64.39,4.69,4.69,0,0,1-.61.18,4.49,4.49,0,0,1-1.2.08,4.58,4.58,0,0,1-1.92-.54c-1-.55-1.37-1.22-1.32-1.24a11.05,11.05,0,0,0,1.48.91,4.82,4.82,0,0,0,1.78.39,4.36,4.36,0,0,0,1.07-.1,2.3,2.3,0,0,0,1-.4s0-.06,0,0,0,0,0,0a3.11,3.11,0,0,0-.46-.15,4.9,4.9,0,0,0-1-.16,5.71,5.71,0,0,0-1.71.15l.11-.29a1.35,1.35,0,0,0,1.17.6C254.09,100.15,254.27,100,254.3,100.08Z" style="fill: rgb(38, 50, 56); transform-origin: 253.24px 100.149px;" id="el3q7xc2hxk9d" class="animable"></path><path d="M319,157.64a5.82,5.82,0,0,1-1.11.59c-.73.34-1.79.85-3.07,1.5a77.47,77.47,0,0,0-18.36,12.94c-1.05,1-1.88,1.81-2.45,2.39a5.94,5.94,0,0,1-.92.85,6.11,6.11,0,0,1,.77-1c.53-.62,1.32-1.48,2.35-2.51a65.22,65.22,0,0,1,8.66-7.3,66.71,66.71,0,0,1,9.79-5.71c1.31-.61,2.39-1.07,3.15-1.36A6.26,6.26,0,0,1,319,157.64Z" style="fill: rgb(69, 90, 100); transform-origin: 306.045px 166.775px;" id="elnqvmx6ryjr" class="animable"></path><path d="M317.61,165.38c.05.13-5.28,2.5-11.91,5.28s-12.05,4.94-12.1,4.81,5.27-2.5,11.9-5.29S317.55,165.24,317.61,165.38Z" style="fill: rgb(69, 90, 100); transform-origin: 305.605px 170.425px;" id="elvv6ycix4xxk" class="animable"></path><path d="M320.19,145.5a7.13,7.13,0,0,1-1,1.05c-.68.64-1.65,1.59-2.84,2.77a121.3,121.3,0,0,0-16.51,20.28c-.91,1.4-1.64,2.55-2.13,3.35a7.71,7.71,0,0,1-.82,1.21,8.19,8.19,0,0,1,.64-1.31c.44-.83,1.12-2,2-3.45a100.06,100.06,0,0,1,16.56-20.35c1.23-1.15,2.24-2.05,3-2.65A7.5,7.5,0,0,1,320.19,145.5Z" style="fill: rgb(69, 90, 100); transform-origin: 308.54px 159.83px;" id="eluknyzmgve0r" class="animable"></path><path d="M383.21,218.55c-.1.34,21.45-2.73,21.45-2.73s10.16,1.63,11.09,1.58,4.66.39,5.54-.6c0,0,3.38.57,4.25-1.11a9.78,9.78,0,0,0,1-2.25s1.78-.28,2.46-2.9,1.86-7.49.73-9.07a16.13,16.13,0,0,0-2.23-2.54s5.9-4.59,5.6-5.65-.63-2.75-2.9-2.38a14.82,14.82,0,0,0-6.21,3.22c-.83.86-5.42,2.42-8.45,2.8s-7.34,3.37-9.21,5.62L404,204.42l-16.85.59Z" style="fill: rgb(69, 90, 100); transform-origin: 408.16px 204.712px;" id="elri0ax15wbsm" class="animable"></path><path d="M417.09,211.74c-.1,0-.37-1.48-1.22-3.74a8.56,8.56,0,0,0-2.32-3.44,5.34,5.34,0,0,0-2.1-1.16,3.71,3.71,0,0,0-2.5.12,2.59,2.59,0,0,0-1.29,1.12,2.24,2.24,0,0,0-.24,1.59,1.61,1.61,0,0,0,2.25,1.11l.23-.15.1.26.84,2.32,0,.1-.06.08a4.09,4.09,0,0,0-.88,2.59c0,.67.13,1,.09,1a2.06,2.06,0,0,1-.29-1,4.1,4.1,0,0,1,.79-2.83l0,.18-.91-2.3.32.11a2.06,2.06,0,0,1-3-1.36,2.8,2.8,0,0,1,.27-2,3.13,3.13,0,0,1,1.54-1.35,4.29,4.29,0,0,1,2.84-.14,6,6,0,0,1,2.29,1.29,8.68,8.68,0,0,1,2.34,3.68,17.75,17.75,0,0,1,.74,2.81A3.67,3.67,0,0,1,417.09,211.74Z" style="fill: rgb(38, 50, 56); transform-origin: 411.957px 208.106px;" id="el09dlbu1una8" class="animable"></path><path d="M422.27,212.07a14.31,14.31,0,0,1-.7-2.7c-.19-.89-.39-1.88-.61-3a8.45,8.45,0,0,0-1.19-3.34,4,4,0,0,0-3-1.44,8.44,8.44,0,0,0-2.91,0,2.27,2.27,0,0,0-1.44,1.17,4.08,4.08,0,0,0-.21.69s-.13-.28,0-.77a2.43,2.43,0,0,1,1.52-1.44,8,8,0,0,1,3.07-.17,6.44,6.44,0,0,1,1.81.38,3.57,3.57,0,0,1,1.61,1.23,8.41,8.41,0,0,1,1.24,3.56c.18,1.08.35,2.07.5,3A15.41,15.41,0,0,1,422.27,212.07Z" style="fill: rgb(38, 50, 56); transform-origin: 417.211px 206.532px;" id="elf2hzbhtdbup" class="animable"></path><path d="M414.71,201.57a1.54,1.54,0,0,1-.16-.92,3.31,3.31,0,0,1,1.15-2.26,4.45,4.45,0,0,1,3.65-.87,7,7,0,0,1,4,2.33,10.52,10.52,0,0,1,2.22,4,18.43,18.43,0,0,1,.68,3.66c.09,1.06.12,1.91.12,2.5a3.4,3.4,0,0,1,0,.92,31.9,31.9,0,0,1-.45-3.37c-.29-2-.8-5-2.91-7.38a6.68,6.68,0,0,0-3.67-2.2,4.15,4.15,0,0,0-3.34.67,3.29,3.29,0,0,0-1.18,2C414.67,201.24,414.76,201.56,414.71,201.57Z" style="fill: rgb(38, 50, 56); transform-origin: 420.468px 204.18px;" id="elf31k6lgohl" class="animable"></path><path d="M428,199.57c-.06.05-.42-.28-1-.77a8.18,8.18,0,0,0-2.49-1.53,4.12,4.12,0,0,0-2.8,0c-.69.29-1,.67-1.07.61s.18-.52.91-.94a4,4,0,0,1,3.12-.21,6.53,6.53,0,0,1,2.58,1.75C427.74,199.11,428,199.52,428,199.57Z" style="fill: rgb(38, 50, 56); transform-origin: 424.314px 198.042px;" id="eltmv0mk239xr" class="animable"></path><path d="M427.89,264.92c-.71-1.29-1.72-2.38-2.51-3.62a6,6,0,0,1-1.14-4.17c.36-1.95,2.21-3.62,1.2-5.67a3.24,3.24,0,0,0-2.81-1.73c-4.11-.19-7.23,3.11-9,6.68a24.82,24.82,0,0,0-2.45,7.5,12.34,12.34,0,0,0,5.62,12.4,9.41,9.41,0,0,0,2.49,1,7.9,7.9,0,0,0,8.24-3.31A9,9,0,0,0,427.89,264.92Z" style="fill: rgb(253, 90, 26); transform-origin: 419.986px 263.607px;" id="ell0nzobkpy1f" class="animable"></path><g id="elnyaff2yekqj"><g style="opacity: 0.4; transform-origin: 420.223px 266.601px;" class="animable"><path d="M422.45,262.64c-.57-1.15-1.55-2.45-2.89-1.87a2.14,2.14,0,0,0-.85.7,10.63,10.63,0,0,0-2.25,7.42c0,.21.06.43.1.64a3.77,3.77,0,0,0,7.45-.34v-.07A12.3,12.3,0,0,0,422.45,262.64Z" style="fill: rgb(255, 255, 255); transform-origin: 420.223px 266.601px;" id="elp6slsovkej" class="animable"></path></g></g><rect x="403.06" y="239.01" width="35.77" height="5.41" rx="2.12" style="fill: rgb(38, 50, 56); transform-origin: 420.945px 241.715px;" id="el7uo7tryw8gx" class="animable"></rect><rect x="403.06" y="286.13" width="35.77" height="5.41" rx="2.12" style="fill: rgb(38, 50, 56); transform-origin: 420.945px 288.835px;" id="elpsis34j667s" class="animable"></rect><path d="M406.82,288.81s0-.29,0-.84,0-1.39,0-2.44c0-2.17,0-5.3-.06-9.29,0-8-.06-19.48-.1-33.27v-.81l.41.7c7.69,13.12,16.89,28.81,26.75,45.65l.1.16-.49.14c0-16.65,0-32.33,0-45.84l.43.11c-7.8,13.65-14.34,25.09-18.95,33.13l-5.37,9.32c-.62,1.05-1.1,1.87-1.43,2.45l-.38.62a.87.87,0,0,1-.14.21,1.43,1.43,0,0,1,.11-.23l.34-.64c.33-.58.78-1.41,1.38-2.48,1.22-2.19,3-5.36,5.26-9.38l18.78-33.22.43-.76V243c0,13.51,0,29.19,0,45.84v1l-.48-.83-.1-.17-26.68-45.69L407,243c0,13.79-.07,25.24-.09,33.27,0,4-.05,7.12-.06,9.29l0,2.44C406.85,288.52,406.82,288.81,406.82,288.81Z" style="fill: rgb(38, 50, 56); transform-origin: 420.275px 265.97px;" id="ela4kto69hjdr" class="animable"></path><path d="M408.44,240.26c.2-.31,5.33-13.91,5.33-13.91h14.15L433.45,241Z" style="fill: rgb(38, 50, 56); transform-origin: 420.945px 233.675px;" id="elszw5xdqos3a" class="animable"></path><path d="M428.85,200.37s.07,0,.2.09a5.51,5.51,0,0,1,.57.34,17.15,17.15,0,0,1,2,1.58,16.08,16.08,0,0,1,4.4,8.1,16.71,16.71,0,0,1,.07,6.44,16.33,16.33,0,0,1-3,6.75,16.12,16.12,0,0,1-6.38,5.07,15.66,15.66,0,0,1-8.66,1.09,18.15,18.15,0,0,1-2.21-.5,14.9,14.9,0,0,1-2.07-.83,15.39,15.39,0,0,1-3.63-2.38,17.1,17.1,0,0,1-2.77-3.15,16.49,16.49,0,0,1-.71-17.06,15.79,15.79,0,0,1,6.62-6.41,12,12,0,0,1,3.19-1.16,29.75,29.75,0,0,0-3.1,1.34A16.07,16.07,0,0,0,406,219.21a15.48,15.48,0,0,0,4.46,6.52,15.28,15.28,0,0,0,16,2.55,15.89,15.89,0,0,0,9.13-11.44,16.36,16.36,0,0,0,0-6.28,16.16,16.16,0,0,0-4.18-8,22.32,22.32,0,0,0-1.89-1.65C429.1,200.53,428.84,200.39,428.85,200.37Z" style="fill: rgb(38, 50, 56); transform-origin: 420.495px 214.182px;" id="el2n9ed1c0jdu" class="animable"></path><path d="M436.35,239c0,.14-6.7.26-15,.26s-14.95-.12-14.95-.26,6.69-.26,14.95-.26S436.35,238.86,436.35,239Z" style="fill: rgb(69, 90, 100); transform-origin: 421.375px 239px;" id="el0kshczaac6j" class="animable"></path><path d="M398.1,276.14a3.19,3.19,0,0,1-.44-.84,21.35,21.35,0,0,1-.87-2.41,26.93,26.93,0,0,1,.5-16.65,19.07,19.07,0,0,1,1-2.35,3.23,3.23,0,0,1,.48-.81c.08,0-.5,1.24-1.15,3.28a29.84,29.84,0,0,0-.49,16.44C397.68,274.87,398.18,276.1,398.1,276.14Z" style="fill: rgb(253, 90, 26); transform-origin: 397.243px 264.61px;" id="el1veh584ay24" class="animable"></path><path d="M387.28,281.77a7.38,7.38,0,0,1-.69-1.35,30.68,30.68,0,0,1-1.41-3.88,33.94,33.94,0,0,1,3.24-26.43,32.36,32.36,0,0,1,2.31-3.43,7.76,7.76,0,0,1,1-1.13,8.79,8.79,0,0,1-.83,1.25,40.67,40.67,0,0,0-2.16,3.49,35.45,35.45,0,0,0-3.2,26.15,38.25,38.25,0,0,0,1.24,3.91A8.85,8.85,0,0,1,387.28,281.77Z" style="fill: rgb(253, 90, 26); transform-origin: 387.789px 263.66px;" id="el3mwukkkjqae" class="animable"></path><path d="M444.83,270.63c-.09,0,.24-1,.5-2.73A21.81,21.81,0,0,0,443.4,255c-.75-1.54-1.36-2.41-1.29-2.46s.21.18.5.56a13.14,13.14,0,0,1,1.12,1.73,19.38,19.38,0,0,1,2,13.19,12.73,12.73,0,0,1-.55,2A2.28,2.28,0,0,1,444.83,270.63Z" style="fill: rgb(253, 90, 26); transform-origin: 444.112px 261.582px;" id="elf7jy9pnsl2t" class="animable"></path><path d="M454.49,278.89a6.78,6.78,0,0,1,.28-1.35c.22-.86.53-2.11.88-3.65a38.84,38.84,0,0,0,1-12.23A20.11,20.11,0,0,0,452,250.52a18.45,18.45,0,0,0-3.91-3.24s.13,0,.34.12a7,7,0,0,1,.91.48,13.16,13.16,0,0,1,2.94,2.39,19.73,19.73,0,0,1,4.87,11.34A35.87,35.87,0,0,1,456,274c-.39,1.54-.76,2.78-1,3.62A7.76,7.76,0,0,1,454.49,278.89Z" style="fill: rgb(253, 90, 26); transform-origin: 452.68px 263.085px;" id="elag9fn4w44e" class="animable"></path><path d="M100.93,202.37c.1.33-22-2.75-22-2.75s-10.43,1.64-11.37,1.59-4.78.4-5.68-.6c0,0-3.47.57-4.36-1.12a9.06,9.06,0,0,1-1-2.26S54.72,197,54,194.32s-1.91-7.52-.75-9.11a15.79,15.79,0,0,1,2.28-2.55S49.51,178,49.82,177s.64-2.76,3-2.39a15.2,15.2,0,0,1,6.37,3.24c.85.86,5.56,2.43,8.66,2.81s7.53,3.39,9.44,5.64l2.38,1.89,17.28.6Z" style="fill: rgb(69, 90, 100); transform-origin: 75.3694px 188.477px;" id="el6v14ide52og" class="animable"></path><path d="M66.2,195.53a3.55,3.55,0,0,1,.15-1.07,17.91,17.91,0,0,1,.77-2.85,8.66,8.66,0,0,1,2.41-3.69,5.92,5.92,0,0,1,2.33-1.27,4.43,4.43,0,0,1,2.87.12,3.17,3.17,0,0,1,1.59,1.36,2.78,2.78,0,0,1,.29,2,2.13,2.13,0,0,1-3,1.36l.32-.11q-.49,1.24-.93,2.31l0-.18a4.09,4.09,0,0,1,.82,2.83,2.13,2.13,0,0,1-.3,1s.09-.37.1-1.05a4.09,4.09,0,0,0-.9-2.59l-.07-.08,0-.1c.26-.72.55-1.5.86-2.34l.09-.25.23.14a1.66,1.66,0,0,0,2.32-1.1,2.22,2.22,0,0,0-.25-1.62,2.66,2.66,0,0,0-1.34-1.12,3.93,3.93,0,0,0-2.53-.12,5.69,5.69,0,0,0-2.16,1.15,8.68,8.68,0,0,0-2.38,3.45,28.27,28.27,0,0,0-.92,2.76A4.94,4.94,0,0,1,66.2,195.53Z" style="fill: rgb(38, 50, 56); transform-origin: 71.4408px 191.904px;" id="elvn8jz6w6zc" class="animable"></path><path d="M60.9,195.86a14.26,14.26,0,0,1,.35-2.8c.15-.92.33-1.92.52-3a8.09,8.09,0,0,1,1.3-3.6,3.75,3.75,0,0,1,1.67-1.19,6.89,6.89,0,0,1,1.83-.36,8,8,0,0,1,3.11.17,2.45,2.45,0,0,1,1.55,1.44c.16.5,0,.79,0,.78a7.14,7.14,0,0,0-.22-.7,2.34,2.34,0,0,0-1.47-1.17,8.73,8.73,0,0,0-3,0,4.21,4.21,0,0,0-3.13,1.4,8,8,0,0,0-1.24,3.36c-.23,1.08-.44,2.08-.63,3A16.06,16.06,0,0,1,60.9,195.86Z" style="fill: rgb(38, 50, 56); transform-origin: 66.1006px 190.345px;" id="el4nefol2fo1c" class="animable"></path><path d="M68.64,185.31s0-.34,0-.91a3.28,3.28,0,0,0-1.22-2,4.3,4.3,0,0,0-3.38-.67,6.88,6.88,0,0,0-3.76,2.17c-2.18,2.35-2.72,5.38-3,7.43s-.37,3.41-.45,3.41a2.82,2.82,0,0,1-.05-.93c0-.6,0-1.46.13-2.53a18.53,18.53,0,0,1,.72-3.7,10.58,10.58,0,0,1,2.29-4,7.3,7.3,0,0,1,4-2.29,4.67,4.67,0,0,1,3.71.86,3.31,3.31,0,0,1,1.18,2.28A1.5,1.5,0,0,1,68.64,185.31Z" style="fill: rgb(38, 50, 56); transform-origin: 62.7909px 187.972px;" id="el7pkkbr8svqd" class="animable"></path><path d="M55.07,183.3c0-.05.22-.46.78-1.05a6.62,6.62,0,0,1,2.64-1.75,4.12,4.12,0,0,1,3.19.21c.75.41,1,.92.93.94s-.39-.32-1.09-.61a4.29,4.29,0,0,0-2.86,0,8.24,8.24,0,0,0-2.56,1.53C55.5,183,55.13,183.35,55.07,183.3Z" style="fill: rgb(38, 50, 56); transform-origin: 58.8456px 181.789px;" id="el30rbz8adr3g" class="animable"></path><path d="M79.06,179.08a13,13,0,0,1,2,1.62c1.19,1,2.84,2.49,4.62,4.13S89,188,90.09,189.18a10,10,0,0,1,1.61,2,18.31,18.31,0,0,1-1.87-1.75c-1.13-1.11-2.74-2.59-4.51-4.23s-3.39-3.12-4.52-4.24A11.58,11.58,0,0,1,79.06,179.08Z" style="fill: rgb(38, 50, 56); transform-origin: 85.38px 185.13px;" id="elqih6ie18lhf" class="animable"></path><path d="M80.1,185.59c.08-.16,2.78,1.26,5.94,3.27l4,2.57a9.22,9.22,0,0,1,1.63,1.13c-.08.16-2.79-1.26-5.94-3.26l-4-2.57A8.59,8.59,0,0,1,80.1,185.59Z" style="fill: rgb(38, 50, 56); transform-origin: 85.885px 189.075px;" id="el4gmh4qhpk7r" class="animable"></path><path d="M79.43,194.7a30.31,30.31,0,0,1,4.61.79,31.72,31.72,0,0,1,4.58,1,15.71,15.71,0,0,1-4.68-.49A16.08,16.08,0,0,1,79.43,194.7Z" style="fill: rgb(38, 50, 56); transform-origin: 84.025px 195.603px;" id="elwylnjo44hbm" class="animable"></path><path d="M82.39,197.78a20.79,20.79,0,0,1,3.48-.17,20.91,20.91,0,0,1,3.49,0,8.48,8.48,0,0,1-3.48.48A8.56,8.56,0,0,1,82.39,197.78Z" style="fill: rgb(38, 50, 56); transform-origin: 85.875px 197.843px;" id="elo8kxqwewpzr" class="animable"></path><path d="M76.2,205.22a34,34,0,0,1,6-3.37,33.26,33.26,0,0,1,6.4-2.59c0,.13-2.75,1.4-6.18,3.05S76.27,205.35,76.2,205.22Z" style="fill: rgb(38, 50, 56); transform-origin: 82.4px 202.244px;" id="elwe1hrelvm89" class="animable"></path><path d="M82.85,205.89c-.08-.12.72-.79,1.79-1.51a5.43,5.43,0,0,1,2.08-1.07c.08.12-.72.79-1.79,1.51A5.43,5.43,0,0,1,82.85,205.89Z" style="fill: rgb(38, 50, 56); transform-origin: 84.785px 204.6px;" id="elcg2vl2zj4qt" class="animable"></path><path d="M244.58,316.41c2.15,1.93,8.19,166.93,8.19,166.93h9.11V392.76l11.18-16.64-5.14-7.06-9.1,9-1.71-61.63Z" style="fill: rgb(38, 50, 56); transform-origin: 258.82px 399.875px;" id="elkz46t4zjxm" class="animable"></path><path d="M200.25,177.2a16.74,16.74,0,0,1-2.17-2.45,67.17,67.17,0,0,1-4.52-6.47,69.14,69.14,0,0,1-3.75-6.94,16,16,0,0,1-1.21-3,26.14,26.14,0,0,1,1.54,2.87c.93,1.79,2.26,4.23,3.86,6.84s3.2,4.89,4.38,6.52A25.54,25.54,0,0,1,200.25,177.2Z" style="fill: rgb(69, 90, 100); transform-origin: 194.425px 167.77px;" id="elw54rg15juc" class="animable"></path><path d="M202,175.44a14.91,14.91,0,0,1-1.07-2.92,72.36,72.36,0,0,1-2.84-14.7,15.13,15.13,0,0,1-.1-3.11,21.59,21.59,0,0,1,.47,3.07c.25,1.9.63,4.51,1.18,7.37s1.17,5.42,1.65,7.27A24.14,24.14,0,0,1,202,175.44Z" style="fill: rgb(69, 90, 100); transform-origin: 199.976px 165.075px;" id="elal06rstjr8" class="animable"></path><path d="M208,175.78a39.46,39.46,0,0,1-1.27-3.81c-.71-2.08-1.5-3.69-1.37-3.76a9.82,9.82,0,0,1,1.87,3.59A10.13,10.13,0,0,1,208,175.78Z" style="fill: rgb(69, 90, 100); transform-origin: 206.673px 171.995px;" id="elu8xvvil7m9" class="animable"></path><path d="M196.07,268.33l-.1-.05-.3-.18c-.26-.15-.64-.4-1.15-.68A27.4,27.4,0,0,0,182.27,264c-.75-.05-1.52,0-2.31,0s-1.61.1-2.44.23a26.64,26.64,0,0,0-5.09,1.22l-.2.08,0-.22a22.13,22.13,0,0,0-.48-8.74,22.83,22.83,0,0,0-4.27-8.56,18.67,18.67,0,0,0-4.89-4.31,22,22,0,0,0-5.8-2.3,52.46,52.46,0,0,0-11.23-1.19h-.21l.1-.17a41,41,0,0,0,4.73-12.89,31,31,0,0,0,.42-3.82c0-.44,0-.78,0-1s0-.35,0-.35,0,.12,0,.35,0,.57,0,1a28.51,28.51,0,0,1-.35,3.84,40.4,40.4,0,0,1-4.65,13l-.11-.18a53.19,53.19,0,0,1,11.3,1.17,22,22,0,0,1,5.88,2.32,19,19,0,0,1,5,4.38,22.86,22.86,0,0,1,4.31,8.67,22.31,22.31,0,0,1,.47,8.85l-.18-.15a26.58,26.58,0,0,1,5.15-1.21c.84-.13,1.66-.17,2.46-.23s1.57,0,2.33,0a26.72,26.72,0,0,1,7.67,1.47,26,26,0,0,1,4.61,2.11c.51.3.88.56,1.14.73l.28.19C196.05,268.3,196.08,268.33,196.07,268.33Z" style="fill: rgb(69, 90, 100); transform-origin: 170.711px 245.155px;" id="elvod3uhvo7kq" class="animable"></path><path d="M201.94,234.2a3.3,3.3,0,0,1-.32.39l-1,1.08c-.85.93-2.09,2.27-3.63,3.92-3.09,3.29-7.4,7.8-12.18,12.75s-9.1,9.43-12.24,12.7l-3.71,3.85-1,1.05a2.32,2.32,0,0,1-.37.34,4.64,4.64,0,0,1,.33-.39l1-1.08c.85-.93,2.09-2.27,3.63-3.91,3.09-3.3,7.4-7.8,12.19-12.76l12.24-12.7,3.7-3.85,1-1A2.76,2.76,0,0,1,201.94,234.2Z" style="fill: rgb(69, 90, 100); transform-origin: 184.715px 252.24px;" id="elclyan59j0hf" class="animable"></path><path d="M202.16,233.8l-.16,0-.47.06-1.8.21-6.63.76-21.85,2.49c-8.54,1-16.27,1.83-21.87,2.41l-6.63.66-1.81.16-.47,0h-.16l.16,0,.47-.06,1.8-.21,6.62-.76,21.86-2.49c8.53-1,16.26-1.83,21.86-2.41l6.64-.66,1.8-.16.47,0C202.1,233.79,202.15,233.79,202.16,233.8Z" style="fill: rgb(69, 90, 100); transform-origin: 171.235px 237.171px;" id="elpf2y0dogefs" class="animable"></path><path d="M197.68,258.49s-.42-.21-1.21-.53a18.83,18.83,0,0,0-3.54-1.06,28.85,28.85,0,0,0-5.66-.58,26.1,26.1,0,0,0-7.21.93l-.26.07.1-.25c1.41-3.58.47-8.29-2.25-11.88a15.82,15.82,0,0,0-3.16-3.12,17.86,17.86,0,0,0-3.65-2.14,23.74,23.74,0,0,0-7.49-1.73l-.26,0,.18-.18a9.76,9.76,0,0,0,2.46-5.16,14.72,14.72,0,0,0,0-4.46,18.5,18.5,0,0,0-.66-2.81c-.1-.32-.2-.56-.25-.72a.7.7,0,0,1-.07-.25l.11.24c.06.15.17.39.28.7a17.14,17.14,0,0,1,.73,2.81,14.59,14.59,0,0,1,.06,4.52,9.92,9.92,0,0,1-2.48,5.3l-.08-.21a23.85,23.85,0,0,1,7.58,1.72,17.77,17.77,0,0,1,3.72,2.17,16.37,16.37,0,0,1,3.22,3.17,14.88,14.88,0,0,1,2.72,6.07,11.13,11.13,0,0,1-.46,6.09L180,257a25.9,25.9,0,0,1,7.29-.89,27.18,27.18,0,0,1,5.69.64,18.18,18.18,0,0,1,3.54,1.14,6.4,6.4,0,0,1,.88.44A1.52,1.52,0,0,1,197.68,258.49Z" style="fill: rgb(69, 90, 100); transform-origin: 180.385px 241.555px;" id="elhc355vv391" class="animable"></path><path d="M199.33,247.63a11.8,11.8,0,0,0-2.55-1.17,9.26,9.26,0,0,0-3.14-.36,8.73,8.73,0,0,0-3.85,1.14l-.17.09,0-.19a13.5,13.5,0,0,0-9.2-10.72l-.19,0,.12-.15a12.07,12.07,0,0,0,2.58-5.8,11.88,11.88,0,0,0,.15-1.81,4.72,4.72,0,0,1,0-.65s0,.06,0,.17,0,.27,0,.48a11.84,11.84,0,0,1-2.62,7.77l-.06-.21a13.63,13.63,0,0,1,9.4,10.93l-.2-.1a8.84,8.84,0,0,1,4-1.12,9,9,0,0,1,3.2.43,8,8,0,0,1,1.9.88c.21.13.35.25.45.32Z" style="fill: rgb(69, 90, 100); transform-origin: 189.78px 237.82px;" id="elc40sv6kjp84" class="animable"></path><path d="M201.59,239.26a3.12,3.12,0,0,0-1.16-.56,4.07,4.07,0,0,0-3.14.64l-.36.25.15-.42a2.12,2.12,0,0,0,0-1.12,7.14,7.14,0,0,0-.4-1.21,6.66,6.66,0,0,0-.81-1.32,1.78,1.78,0,0,0-1.09-.74l-.42,0,.35-.21a5.7,5.7,0,0,0,1.32-1,3,3,0,0,0,.68-1.08,9.28,9.28,0,0,0,.25-1.12.86.86,0,0,1,0,.31,3,3,0,0,1-.79,2,6,6,0,0,1-1.35,1.08l-.06-.25a2,2,0,0,1,1.3.82,6.69,6.69,0,0,1,1.28,2.66,2.36,2.36,0,0,1,0,1.29l-.21-.17a4.08,4.08,0,0,1,3.34-.57,2.34,2.34,0,0,1,.89.45C201.54,239.15,201.6,239.26,201.59,239.26Z" style="fill: rgb(69, 90, 100); transform-origin: 197.976px 235.48px;" id="eln1za47brujq" class="animable"></path><path d="M408.82,191.72a66.22,66.22,0,0,1-4.65,5.13,66.89,66.89,0,0,1-4.79,5,36.28,36.28,0,0,1,4.41-5.35A35.33,35.33,0,0,1,408.82,191.72Z" style="fill: rgb(38, 50, 56); transform-origin: 404.1px 196.785px;" id="elu57jic2n5wr" class="animable"></path><path d="M407.78,198.24a38.69,38.69,0,0,1-7.94,4.12,38.69,38.69,0,0,1,7.94-4.12Z" style="fill: rgb(38, 50, 56); transform-origin: 403.81px 200.3px;" id="elgiyf9iu6tjd" class="animable"></path><path d="M408.45,207.34a18.44,18.44,0,0,1-7.67,1.5,20.65,20.65,0,0,1,3.82-.85A21.44,21.44,0,0,1,408.45,207.34Z" style="fill: rgb(38, 50, 56); transform-origin: 404.615px 208.092px;" id="el5kbu4o16dwy" class="animable"></path><path d="M405.49,210.43a6.61,6.61,0,0,1-4.61-.09,7.82,7.82,0,0,1,2.31-.06A7.52,7.52,0,0,1,405.49,210.43Z" style="fill: rgb(38, 50, 56); transform-origin: 403.185px 210.511px;" id="elusg5rakph9o" class="animable"></path><path d="M411.68,217.87a55.57,55.57,0,0,1-5.53-2.57,52.08,52.08,0,0,1-5.47-2.72,42.71,42.71,0,0,1,11,5.29Z" style="fill: rgb(38, 50, 56); transform-origin: 406.18px 215.225px;" id="elgsm0a9vo1ml" class="animable"></path><path d="M405,218.54c-.08.12-1-.36-2.08-1.08s-1.87-1.39-1.79-1.5a5.43,5.43,0,0,1,2.08,1.07C404.31,217.74,405.11,218.42,405,218.54Z" style="fill: rgb(38, 50, 56); transform-origin: 403.067px 217.259px;" id="elqcps6llzmbm" class="animable"></path><path d="M282.37,342c6-1.32,9.89-2.47,9.89-2.47L280.47,191.32l-65.17,2.35S202,314.56,220.3,337l-.59.08-1.2,20.49c-.08,1.34.16,3.11,1.48,3.35,1.08.2,1.93-.84,2.52-1.76l4.92-7.63c1-1.49,2.15-3.14,3.92-3.36,2.56-.31,4.38,2.6,4.6,5.17s-.42,5.25.42,7.68c.48,1.37,1.74,2.7,3.17,2.43a3.71,3.71,0,0,0,2.27-2.09c1.6-2.87,2.58-6.17,4.87-8.52s6.65-3.22,8.66-.63c1,1.25,1.12,2.91,1.56,4.42s1.47,3.1,3,3.22c2.08.15,3.3-2.24,4-4.22,1-2.85,2.47-6.08,5.42-6.72,3.34-.74,6.27,2.36,7.8,5.43s2.64,6.64,5.56,8.43c1.89-2.61,1.56-6.17,1.15-9.37Q283.1,347.7,282.37,342Z" style="fill: rgb(69, 90, 100); transform-origin: 251.446px 277.403px;" id="els7zh3jk8g2c" class="animable"></path><path d="M241.43,200.62c-.81-25.54-59.19-26.69-59.19-26.69l23.17,24.35L89.72,180.47l-8.4,26.39L200,233.08l.32,3.65L182.24,369.36c29.19,9.73,40.55-30,40.55-30S242.24,226.17,241.43,200.62Z" style="fill: rgb(38, 50, 56); transform-origin: 161.387px 272.412px;" id="elry1rb88w2mn" class="animable"></path><path d="M292.78,198,316,173.66s-58.38,1.15-59.19,26.69S275.4,339.09,275.4,339.09s11.36,39.73,40.55,30L298.21,232.81Z" style="fill: rgb(38, 50, 56); transform-origin: 286.393px 272.142px;" id="elaw3wepkn9we" class="animable"></path><path d="M266.7,204.26c0,.14-9.44-2.12-21-5s-20.9-5.41-20.87-5.55,9.44,2.11,21,5S266.73,204.12,266.7,204.26Z" style="fill: rgb(255, 255, 255); transform-origin: 245.765px 198.985px;" id="el3p3hny8lg6a" class="animable"></path><path d="M270.69,193.67c.05.13-8.94,3.34-20.07,7.17s-20.19,6.81-20.24,6.68,8.94-3.35,20.07-7.18S270.64,193.53,270.69,193.67Z" style="fill: rgb(255, 255, 255); transform-origin: 250.535px 200.595px;" id="els1e6z12j7xc" class="animable"></path><polygon points="287.49 194.23 398.71 194.23 403.58 225.88 288.87 225.88 287.49 194.23" style="fill: rgb(38, 50, 56); transform-origin: 345.535px 210.055px;" id="elfgd973r0fdw" class="animable"></polygon><path d="M316,174.16a8.06,8.06,0,0,1-1.05,1.16L312,178.38c-2.48,2.58-5.84,6.22-9.71,10.09-1.93,1.94-3.89,3.66-5.43,5.44a14.78,14.78,0,0,0-3.14,5.29,9.45,9.45,0,0,0-.39,4.12c.15,1,.36,1.5.32,1.52a1.34,1.34,0,0,1-.19-.36,7.27,7.27,0,0,1-.33-1.12,9.35,9.35,0,0,1,.23-4.27,14.75,14.75,0,0,1,3.14-5.5c1.55-1.83,3.51-3.56,5.43-5.49,3.79-3.87,7.23-7.36,9.81-10,1.27-1.26,2.32-2.27,3.05-3A8.26,8.26,0,0,1,316,174.16Z" style="fill: rgb(253, 90, 26); transform-origin: 304.492px 189.5px;" id="elq0yglbn6l2" class="animable"></path><path d="M362.54,226l-3.11-12.38-25.05-.27c-.81,0-1.76,0-2.2.72a2.49,2.49,0,0,0,.09,2.22c1.27,3.45,2,6.19,3.31,9.64Z" style="fill: rgb(69, 90, 100); transform-origin: 347.251px 219.675px;" id="el058dm6cfd29t" class="animable"></path><path d="M132.18,187c0-.43,2.48,17.36,2.48,17.36.11-.29,6.67-10.61,9.25-15.56Z" style="fill: rgb(69, 90, 100); transform-origin: 138.045px 195.676px;" id="el4l2l0bymsug" class="animable"></path><path d="M195.28,273.59a4.79,4.79,0,0,1,.68.16l1.94.53c1.68.45,4.14,1,7.17,1.74,1.52.36,3.18.79,4.94,1.31a19.59,19.59,0,0,1,2.71,1,3.85,3.85,0,0,1,2.17,2.23,6.86,6.86,0,0,1-.18,3.25c-.23,1.06-.46,2.13-.69,3.23-.48,2.19-1,4.46-1.69,6.75A43.22,43.22,0,0,1,206.88,306a26.1,26.1,0,0,1-7.79,7.72,17.49,17.49,0,0,1-6.93,2.57,12.54,12.54,0,0,1-2,.12,4.19,4.19,0,0,1-.7,0,2.76,2.76,0,0,1,.7-.07,17,17,0,0,0,2-.22,18,18,0,0,0,6.77-2.68,26.24,26.24,0,0,0,7.58-7.67,43.74,43.74,0,0,0,5.35-12.16c.67-2.28,1.2-4.53,1.69-6.72.24-1.09.47-2.17.7-3.22a6.41,6.41,0,0,0,.21-3,3.38,3.38,0,0,0-1.91-2,20.83,20.83,0,0,0-2.63-1c-1.75-.54-3.4-1-4.9-1.37-3-.77-5.48-1.38-7.14-1.9-.84-.25-1.49-.46-1.92-.62A2.92,2.92,0,0,1,195.28,273.59Z" style="fill: rgb(69, 90, 100); transform-origin: 202.233px 295.007px;" id="el8nvoi7hsm23" class="animable"></path><path d="M262.55,285.89a9.58,9.58,0,0,1-.88,1.41c-.6.89-1.5,2.15-2.66,3.67a109.27,109.27,0,0,1-21.22,21c-1.53,1.15-2.8,2-3.69,2.62a9.91,9.91,0,0,1-1.42.88,9.69,9.69,0,0,1,1.3-1c.86-.64,2.09-1.57,3.59-2.75a127.35,127.35,0,0,0,21.15-21c1.19-1.49,2.14-2.71,2.78-3.56A10.39,10.39,0,0,1,262.55,285.89Z" style="fill: rgb(38, 50, 56); transform-origin: 247.615px 300.68px;" id="elmasyl200gic" class="animable"></path><path d="M311.77,337c-.14,0-3.5-24.61-7.5-55s-7.13-55.06-7-55.08,3.5,24.61,7.5,55S311.92,337,311.77,337Z" style="fill: rgb(253, 90, 26); transform-origin: 304.521px 281.96px;" id="ela75ovaqqq9q" class="animable"></path><path d="M197.84,256.81a2.64,2.64,0,0,1,0,.64c0,.47-.07,1.07-.12,1.82-.11,1.57-.3,3.85-.57,6.66-.54,5.63-1.43,13.38-2.7,21.91s-2.68,16.21-3.8,21.75c-.56,2.76-1,5-1.39,6.54q-.27,1.08-.42,1.77a6,6,0,0,1-.18.61,2.92,2.92,0,0,1,.07-.63c.09-.47.19-1.06.33-1.79.3-1.62.72-3.85,1.23-6.57,1-5.55,2.38-13.24,3.65-21.76s2.21-16.26,2.85-21.87c.3-2.75.55-5,.73-6.64.09-.74.16-1.34.21-1.81A4.92,4.92,0,0,1,197.84,256.81Z" style="fill: rgb(253, 90, 26); transform-origin: 193.26px 287.66px;" id="el62p8a1jtlqr" class="animable"></path><path d="M213.94,221.24a2.77,2.77,0,0,1-.08-.59c0-.45-.08-1-.14-1.71a62.23,62.23,0,0,0-.73-6.24,23.83,23.83,0,0,0-3.29-8.6,37.08,37.08,0,0,0-3.32-4.37c-1.26-1.42-2.65-2.84-4-4.31-5.64-5.84-10.78-11.11-14.4-15-1.81-2-3.25-3.55-4.23-4.68-.49-.56-.85-1-1.1-1.31a3.24,3.24,0,0,1-.36-.48s.16.13.44.41l1.17,1.24,4.35,4.57,14.51,14.91c1.4,1.47,2.78,2.89,4.06,4.34a36.71,36.71,0,0,1,3.33,4.44,23.49,23.49,0,0,1,3.25,8.79,47.78,47.78,0,0,1,.57,6.3c0,.74,0,1.32,0,1.71A2.15,2.15,0,0,1,213.94,221.24Z" style="fill: rgb(253, 90, 26); transform-origin: 198.134px 197.595px;" id="elcxq7m13pj0o" class="animable"></path></g><g id="freepik--Floor--inject-2" class="animable" style="transform-origin: 250px 483.34px;"><path d="M447.17,483.34c0,.14-88.28.26-197.16.26s-197.18-.12-197.18-.26,88.26-.26,197.18-.26S447.17,483.2,447.17,483.34Z" style="fill: rgb(38, 50, 56); transform-origin: 250px 483.34px;" id="elb72bf4gglr4" class="animable"></path></g><defs>     <filter id="active" height="200%">         <feMorphology in="SourceAlpha" result="DILATED" operator="dilate" radius="2"></feMorphology>                <feFlood flood-color="#32DFEC" flood-opacity="1" result="PINK"></feFlood>        <feComposite in="PINK" in2="DILATED" operator="in" result="OUTLINE"></feComposite>        <feMerge>            <feMergeNode in="OUTLINE"></feMergeNode>            <feMergeNode in="SourceGraphic"></feMergeNode>        </feMerge>    </filter>    <filter id="hover" height="200%">        <feMorphology in="SourceAlpha" result="DILATED" operator="dilate" radius="2"></feMorphology>                <feFlood flood-color="#ff0000" flood-opacity="0.5" result="PINK"></feFlood>        <feComposite in="PINK" in2="DILATED" operator="in" result="OUTLINE"></feComposite>        <feMerge>            <feMergeNode in="OUTLINE"></feMergeNode>            <feMergeNode in="SourceGraphic"></feMergeNode>        </feMerge>            <feColorMatrix type="matrix" values="0   0   0   0   0                0   1   0   0   0                0   0   0   0   0                0   0   0   1   0 "></feColorMatrix>    </filter></defs></svg>